<mxfile host="app.diagrams.net" modified="2023-06-19T06:47:01.120Z" agent="Mozilla/5.0 (Macintosh; Intel Mac OS X 10_15_7) AppleWebKit/537.36 (KHTML, like Gecko) Chrome/114.0.0.0 Safari/537.36" etag="Wpeb7B6NhBrnFzhVZY2p" version="21.5.0" type="github">
  <diagram name="Page-1" id="9hEmDTEyCYbfekhOkvTK">
    <mxGraphModel dx="959" dy="1383" grid="1" gridSize="10" guides="1" tooltips="1" connect="1" arrows="1" fold="1" page="1" pageScale="1" pageWidth="827" pageHeight="1169" math="0" shadow="0">
      <root>
        <mxCell id="0" />
        <mxCell id="1" parent="0" />
        <mxCell id="Bf7DV_B2SnLvO-OHd-ng-1" value="&lt;h1&gt;UseCase: PizzaFlow&lt;/h1&gt;&lt;div&gt;Title: OrderPizza&lt;/div&gt;&lt;div&gt;PrimaryActor: customer&amp;nbsp;&lt;/div&gt;&lt;div&gt;SecondaryActors: Admin, chef, delivery&lt;/div&gt;&lt;div&gt;Success scenario: Correct pizza is ordered, made and delivered on time.&lt;/div&gt;" style="text;html=1;strokeColor=none;fillColor=none;spacing=5;spacingTop=-20;whiteSpace=wrap;overflow=hidden;rounded=0;" vertex="1" parent="1">
          <mxGeometry x="318" y="30" width="231" height="150" as="geometry" />
        </mxCell>
        <mxCell id="Bf7DV_B2SnLvO-OHd-ng-2" value="Customer" style="shape=umlActor;verticalLabelPosition=bottom;verticalAlign=top;html=1;outlineConnect=0;" vertex="1" parent="1">
          <mxGeometry x="29" y="300" width="30" height="60" as="geometry" />
        </mxCell>
        <mxCell id="Bf7DV_B2SnLvO-OHd-ng-6" value="Chef" style="shape=umlActor;verticalLabelPosition=bottom;verticalAlign=top;html=1;outlineConnect=0;" vertex="1" parent="1">
          <mxGeometry x="769" y="365" width="30" height="60" as="geometry" />
        </mxCell>
        <mxCell id="Bf7DV_B2SnLvO-OHd-ng-17" value="Delivery" style="shape=umlActor;verticalLabelPosition=bottom;verticalAlign=top;html=1;outlineConnect=0;" vertex="1" parent="1">
          <mxGeometry x="779" y="585" width="30" height="60" as="geometry" />
        </mxCell>
        <mxCell id="Bf7DV_B2SnLvO-OHd-ng-18" value="Admin" style="shape=umlActor;verticalLabelPosition=bottom;verticalAlign=top;html=1;outlineConnect=0;" vertex="1" parent="1">
          <mxGeometry x="19" y="830" width="30" height="60" as="geometry" />
        </mxCell>
        <mxCell id="Bf7DV_B2SnLvO-OHd-ng-54" value="View menu" style="ellipse;whiteSpace=wrap;html=1;" vertex="1" parent="1">
          <mxGeometry x="159" y="280" width="140" height="70" as="geometry" />
        </mxCell>
        <mxCell id="Bf7DV_B2SnLvO-OHd-ng-55" value="View menu" style="ellipse;whiteSpace=wrap;html=1;" vertex="1" parent="1">
          <mxGeometry x="159" y="360" width="140" height="70" as="geometry" />
        </mxCell>
        <mxCell id="Bf7DV_B2SnLvO-OHd-ng-56" value="Place Order" style="ellipse;whiteSpace=wrap;html=1;" vertex="1" parent="1">
          <mxGeometry x="159" y="440" width="140" height="70" as="geometry" />
        </mxCell>
        <mxCell id="Bf7DV_B2SnLvO-OHd-ng-57" value="Track Order" style="ellipse;whiteSpace=wrap;html=1;" vertex="1" parent="1">
          <mxGeometry x="159" y="520" width="140" height="70" as="geometry" />
        </mxCell>
        <mxCell id="Bf7DV_B2SnLvO-OHd-ng-58" value="LogIn" style="ellipse;whiteSpace=wrap;html=1;" vertex="1" parent="1">
          <mxGeometry x="363.5" y="580" width="140" height="70" as="geometry" />
        </mxCell>
        <mxCell id="Bf7DV_B2SnLvO-OHd-ng-59" value="" style="endArrow=none;html=1;rounded=0;exitX=0.5;exitY=0.5;exitDx=0;exitDy=0;exitPerimeter=0;" edge="1" parent="1" source="Bf7DV_B2SnLvO-OHd-ng-2" target="Bf7DV_B2SnLvO-OHd-ng-54">
          <mxGeometry width="50" height="50" relative="1" as="geometry">
            <mxPoint x="59" y="380" as="sourcePoint" />
            <mxPoint x="109" y="330" as="targetPoint" />
          </mxGeometry>
        </mxCell>
        <mxCell id="Bf7DV_B2SnLvO-OHd-ng-60" value="" style="endArrow=none;html=1;rounded=0;entryX=0.079;entryY=0.429;entryDx=0;entryDy=0;entryPerimeter=0;" edge="1" parent="1" source="Bf7DV_B2SnLvO-OHd-ng-2" target="Bf7DV_B2SnLvO-OHd-ng-55">
          <mxGeometry width="50" height="50" relative="1" as="geometry">
            <mxPoint x="79" y="350" as="sourcePoint" />
            <mxPoint x="170" y="329" as="targetPoint" />
          </mxGeometry>
        </mxCell>
        <mxCell id="Bf7DV_B2SnLvO-OHd-ng-61" value="" style="endArrow=none;html=1;rounded=0;exitX=0.5;exitY=0.5;exitDx=0;exitDy=0;exitPerimeter=0;" edge="1" parent="1" source="Bf7DV_B2SnLvO-OHd-ng-2" target="Bf7DV_B2SnLvO-OHd-ng-56">
          <mxGeometry width="50" height="50" relative="1" as="geometry">
            <mxPoint x="89" y="360" as="sourcePoint" />
            <mxPoint x="180" y="400" as="targetPoint" />
          </mxGeometry>
        </mxCell>
        <mxCell id="Bf7DV_B2SnLvO-OHd-ng-62" value="" style="endArrow=none;html=1;rounded=0;exitX=0.5;exitY=0.5;exitDx=0;exitDy=0;exitPerimeter=0;entryX=0;entryY=0.364;entryDx=0;entryDy=0;entryPerimeter=0;" edge="1" parent="1" source="Bf7DV_B2SnLvO-OHd-ng-2" target="Bf7DV_B2SnLvO-OHd-ng-57">
          <mxGeometry width="50" height="50" relative="1" as="geometry">
            <mxPoint x="84" y="360" as="sourcePoint" />
            <mxPoint x="202" y="455" as="targetPoint" />
          </mxGeometry>
        </mxCell>
        <mxCell id="Bf7DV_B2SnLvO-OHd-ng-63" value="&amp;lt;&amp;lt;include&amp;gt;&amp;gt;" style="html=1;verticalAlign=bottom;labelBackgroundColor=none;endArrow=open;endFill=0;dashed=1;rounded=0;exitX=1;exitY=0.714;exitDx=0;exitDy=0;exitPerimeter=0;" edge="1" parent="1" source="Bf7DV_B2SnLvO-OHd-ng-54" target="Bf7DV_B2SnLvO-OHd-ng-58">
          <mxGeometry width="160" relative="1" as="geometry">
            <mxPoint x="279" y="310" as="sourcePoint" />
            <mxPoint x="439" y="310" as="targetPoint" />
          </mxGeometry>
        </mxCell>
        <mxCell id="Bf7DV_B2SnLvO-OHd-ng-64" value="&amp;lt;&amp;lt;include&amp;gt;&amp;gt;" style="html=1;verticalAlign=bottom;labelBackgroundColor=none;endArrow=open;endFill=0;dashed=1;rounded=0;entryX=0.257;entryY=0.064;entryDx=0;entryDy=0;entryPerimeter=0;exitX=0.993;exitY=0.636;exitDx=0;exitDy=0;exitPerimeter=0;" edge="1" parent="1" source="Bf7DV_B2SnLvO-OHd-ng-55" target="Bf7DV_B2SnLvO-OHd-ng-58">
          <mxGeometry width="160" relative="1" as="geometry">
            <mxPoint x="309" y="340" as="sourcePoint" />
            <mxPoint x="409" y="581" as="targetPoint" />
          </mxGeometry>
        </mxCell>
        <mxCell id="Bf7DV_B2SnLvO-OHd-ng-65" value="&amp;lt;&amp;lt;include&amp;gt;&amp;gt;" style="html=1;verticalAlign=bottom;labelBackgroundColor=none;endArrow=open;endFill=0;dashed=1;rounded=0;" edge="1" parent="1" source="Bf7DV_B2SnLvO-OHd-ng-56" target="Bf7DV_B2SnLvO-OHd-ng-58">
          <mxGeometry width="160" relative="1" as="geometry">
            <mxPoint x="319" y="350" as="sourcePoint" />
            <mxPoint x="419" y="591" as="targetPoint" />
          </mxGeometry>
        </mxCell>
        <mxCell id="Bf7DV_B2SnLvO-OHd-ng-66" value="&amp;lt;&amp;lt;include&amp;gt;&amp;gt;" style="html=1;verticalAlign=bottom;labelBackgroundColor=none;endArrow=open;endFill=0;dashed=1;rounded=0;entryX=0.014;entryY=0.35;entryDx=0;entryDy=0;entryPerimeter=0;" edge="1" parent="1" source="Bf7DV_B2SnLvO-OHd-ng-57" target="Bf7DV_B2SnLvO-OHd-ng-58">
          <mxGeometry width="160" relative="1" as="geometry">
            <mxPoint x="329" y="360" as="sourcePoint" />
            <mxPoint x="429" y="601" as="targetPoint" />
          </mxGeometry>
        </mxCell>
        <mxCell id="Bf7DV_B2SnLvO-OHd-ng-69" value="Add/delete&lt;br&gt;menu position" style="ellipse;whiteSpace=wrap;html=1;" vertex="1" parent="1">
          <mxGeometry x="203" y="750" width="140" height="70" as="geometry" />
        </mxCell>
        <mxCell id="Bf7DV_B2SnLvO-OHd-ng-70" value="Manage order status" style="ellipse;whiteSpace=wrap;html=1;" vertex="1" parent="1">
          <mxGeometry x="209" y="830" width="140" height="70" as="geometry" />
        </mxCell>
        <mxCell id="Bf7DV_B2SnLvO-OHd-ng-71" value="Manage Payments" style="ellipse;whiteSpace=wrap;html=1;" vertex="1" parent="1">
          <mxGeometry x="209" y="920" width="140" height="70" as="geometry" />
        </mxCell>
        <mxCell id="Bf7DV_B2SnLvO-OHd-ng-72" value="" style="endArrow=none;html=1;rounded=0;exitX=0.5;exitY=0.5;exitDx=0;exitDy=0;exitPerimeter=0;" edge="1" parent="1" source="Bf7DV_B2SnLvO-OHd-ng-18" target="Bf7DV_B2SnLvO-OHd-ng-69">
          <mxGeometry width="50" height="50" relative="1" as="geometry">
            <mxPoint x="149" y="860" as="sourcePoint" />
            <mxPoint x="199" y="810" as="targetPoint" />
          </mxGeometry>
        </mxCell>
        <mxCell id="Bf7DV_B2SnLvO-OHd-ng-73" value="" style="endArrow=none;html=1;rounded=0;exitX=0.5;exitY=0.5;exitDx=0;exitDy=0;exitPerimeter=0;" edge="1" parent="1" source="Bf7DV_B2SnLvO-OHd-ng-18" target="Bf7DV_B2SnLvO-OHd-ng-70">
          <mxGeometry width="50" height="50" relative="1" as="geometry">
            <mxPoint x="154" y="860" as="sourcePoint" />
            <mxPoint x="234" y="820" as="targetPoint" />
          </mxGeometry>
        </mxCell>
        <mxCell id="Bf7DV_B2SnLvO-OHd-ng-74" value="" style="endArrow=none;html=1;rounded=0;exitX=0.5;exitY=0.5;exitDx=0;exitDy=0;exitPerimeter=0;" edge="1" parent="1" source="Bf7DV_B2SnLvO-OHd-ng-18" target="Bf7DV_B2SnLvO-OHd-ng-71">
          <mxGeometry width="50" height="50" relative="1" as="geometry">
            <mxPoint x="164" y="870" as="sourcePoint" />
            <mxPoint x="244" y="830" as="targetPoint" />
          </mxGeometry>
        </mxCell>
        <mxCell id="Bf7DV_B2SnLvO-OHd-ng-75" value="&amp;lt;&amp;lt;include&amp;gt;&amp;gt;" style="html=1;verticalAlign=bottom;labelBackgroundColor=none;endArrow=open;endFill=0;dashed=1;rounded=0;entryX=0;entryY=1;entryDx=0;entryDy=0;" edge="1" parent="1" source="Bf7DV_B2SnLvO-OHd-ng-69" target="Bf7DV_B2SnLvO-OHd-ng-58">
          <mxGeometry width="160" relative="1" as="geometry">
            <mxPoint x="297" y="585" as="sourcePoint" />
            <mxPoint x="355" y="605" as="targetPoint" />
          </mxGeometry>
        </mxCell>
        <mxCell id="Bf7DV_B2SnLvO-OHd-ng-76" value="&amp;lt;&amp;lt;include&amp;gt;&amp;gt;" style="html=1;verticalAlign=bottom;labelBackgroundColor=none;endArrow=open;endFill=0;dashed=1;rounded=0;exitX=0.986;exitY=0.364;exitDx=0;exitDy=0;exitPerimeter=0;entryX=0.321;entryY=0.95;entryDx=0;entryDy=0;entryPerimeter=0;" edge="1" parent="1" source="Bf7DV_B2SnLvO-OHd-ng-70" target="Bf7DV_B2SnLvO-OHd-ng-58">
          <mxGeometry width="160" relative="1" as="geometry">
            <mxPoint x="303" y="761" as="sourcePoint" />
            <mxPoint x="379" y="630" as="targetPoint" />
          </mxGeometry>
        </mxCell>
        <mxCell id="Bf7DV_B2SnLvO-OHd-ng-77" value="&amp;lt;&amp;lt;include&amp;gt;&amp;gt;" style="html=1;verticalAlign=bottom;labelBackgroundColor=none;endArrow=open;endFill=0;dashed=1;rounded=0;exitX=1.007;exitY=0.407;exitDx=0;exitDy=0;exitPerimeter=0;entryX=0.5;entryY=1;entryDx=0;entryDy=0;" edge="1" parent="1" source="Bf7DV_B2SnLvO-OHd-ng-71" target="Bf7DV_B2SnLvO-OHd-ng-58">
          <mxGeometry width="160" relative="1" as="geometry">
            <mxPoint x="357" y="865" as="sourcePoint" />
            <mxPoint x="389" y="640" as="targetPoint" />
          </mxGeometry>
        </mxCell>
        <mxCell id="Bf7DV_B2SnLvO-OHd-ng-78" value="View order" style="ellipse;whiteSpace=wrap;html=1;" vertex="1" parent="1">
          <mxGeometry x="539" y="310" width="140" height="70" as="geometry" />
        </mxCell>
        <mxCell id="Bf7DV_B2SnLvO-OHd-ng-79" value="Prepare pizza" style="ellipse;whiteSpace=wrap;html=1;" vertex="1" parent="1">
          <mxGeometry x="539" y="390" width="140" height="70" as="geometry" />
        </mxCell>
        <mxCell id="Bf7DV_B2SnLvO-OHd-ng-80" value="Recieve order" style="ellipse;whiteSpace=wrap;html=1;" vertex="1" parent="1">
          <mxGeometry x="439" y="470" width="140" height="70" as="geometry" />
        </mxCell>
        <mxCell id="Bf7DV_B2SnLvO-OHd-ng-81" value="" style="endArrow=none;html=1;rounded=0;entryX=0.5;entryY=0.5;entryDx=0;entryDy=0;entryPerimeter=0;" edge="1" parent="1" source="Bf7DV_B2SnLvO-OHd-ng-78" target="Bf7DV_B2SnLvO-OHd-ng-6">
          <mxGeometry width="50" height="50" relative="1" as="geometry">
            <mxPoint x="669" y="380" as="sourcePoint" />
            <mxPoint x="719" y="330" as="targetPoint" />
          </mxGeometry>
        </mxCell>
        <mxCell id="Bf7DV_B2SnLvO-OHd-ng-82" value="" style="endArrow=none;html=1;rounded=0;entryX=0.5;entryY=0.5;entryDx=0;entryDy=0;entryPerimeter=0;exitX=1;exitY=0.5;exitDx=0;exitDy=0;" edge="1" parent="1" source="Bf7DV_B2SnLvO-OHd-ng-79" target="Bf7DV_B2SnLvO-OHd-ng-6">
          <mxGeometry width="50" height="50" relative="1" as="geometry">
            <mxPoint x="675" y="376" as="sourcePoint" />
            <mxPoint x="754" y="405" as="targetPoint" />
          </mxGeometry>
        </mxCell>
        <mxCell id="Bf7DV_B2SnLvO-OHd-ng-85" value="Deliver Pizza" style="ellipse;whiteSpace=wrap;html=1;" vertex="1" parent="1">
          <mxGeometry x="549" y="560" width="140" height="70" as="geometry" />
        </mxCell>
        <mxCell id="Bf7DV_B2SnLvO-OHd-ng-87" value="" style="endArrow=none;html=1;rounded=0;exitX=1;exitY=0.5;exitDx=0;exitDy=0;entryX=0.5;entryY=0.5;entryDx=0;entryDy=0;entryPerimeter=0;" edge="1" parent="1" source="Bf7DV_B2SnLvO-OHd-ng-85" target="Bf7DV_B2SnLvO-OHd-ng-17">
          <mxGeometry width="50" height="50" relative="1" as="geometry">
            <mxPoint x="678" y="540" as="sourcePoint" />
            <mxPoint x="784" y="580" as="targetPoint" />
          </mxGeometry>
        </mxCell>
        <mxCell id="Bf7DV_B2SnLvO-OHd-ng-88" value="&amp;lt;&amp;lt;include&amp;gt;&amp;gt;" style="html=1;verticalAlign=bottom;labelBackgroundColor=none;endArrow=open;endFill=0;dashed=1;rounded=0;exitX=0.314;exitY=0.021;exitDx=0;exitDy=0;exitPerimeter=0;" edge="1" parent="1" source="Bf7DV_B2SnLvO-OHd-ng-85" target="Bf7DV_B2SnLvO-OHd-ng-80">
          <mxGeometry width="160" relative="1" as="geometry">
            <mxPoint x="308" y="762" as="sourcePoint" />
            <mxPoint x="394" y="650" as="targetPoint" />
          </mxGeometry>
        </mxCell>
        <mxCell id="Bf7DV_B2SnLvO-OHd-ng-89" value="&amp;lt;&amp;lt;include&amp;gt;&amp;gt;" style="html=1;verticalAlign=bottom;labelBackgroundColor=none;endArrow=open;endFill=0;dashed=1;rounded=0;entryX=0.55;entryY=0.021;entryDx=0;entryDy=0;entryPerimeter=0;exitX=0;exitY=0.5;exitDx=0;exitDy=0;" edge="1" parent="1" source="Bf7DV_B2SnLvO-OHd-ng-79" target="Bf7DV_B2SnLvO-OHd-ng-80">
          <mxGeometry width="160" relative="1" as="geometry">
            <mxPoint x="603" y="571" as="sourcePoint" />
            <mxPoint x="561" y="543" as="targetPoint" />
          </mxGeometry>
        </mxCell>
        <mxCell id="Bf7DV_B2SnLvO-OHd-ng-90" value="&amp;lt;&amp;lt;include&amp;gt;&amp;gt;" style="html=1;verticalAlign=bottom;labelBackgroundColor=none;endArrow=open;endFill=0;dashed=1;rounded=0;exitX=0;exitY=0.5;exitDx=0;exitDy=0;entryX=0.371;entryY=-0.064;entryDx=0;entryDy=0;entryPerimeter=0;" edge="1" parent="1" source="Bf7DV_B2SnLvO-OHd-ng-78" target="Bf7DV_B2SnLvO-OHd-ng-80">
          <mxGeometry width="160" relative="1" as="geometry">
            <mxPoint x="613" y="581" as="sourcePoint" />
            <mxPoint x="571" y="553" as="targetPoint" />
          </mxGeometry>
        </mxCell>
        <mxCell id="Bf7DV_B2SnLvO-OHd-ng-91" value="" style="swimlane;startSize=0;" vertex="1" parent="1">
          <mxGeometry x="159" y="270" width="590" height="770" as="geometry" />
        </mxCell>
      </root>
    </mxGraphModel>
  </diagram>
</mxfile>
